<?xml version="1.0" encoding="UTF-8" standalone="no"?>
<!-- Created with Inkscape (http://www.inkscape.org/) -->

<svg
   xmlns:dc="http://purl.org/dc/elements/1.1/"
   xmlns:cc="http://creativecommons.org/ns#"
   xmlns:rdf="http://www.w3.org/1999/02/22-rdf-syntax-ns#"
   xmlns:svg="http://www.w3.org/2000/svg"
   xmlns="http://www.w3.org/2000/svg"
   xmlns:xlink="http://www.w3.org/1999/xlink"
   xmlns:sodipodi="http://sodipodi.sourceforge.net/DTD/sodipodi-0.dtd"
   xmlns:inkscape="http://www.inkscape.org/namespaces/inkscape"
   width="1920"
   height="1080"
   viewBox="0 0 1920 1080"
   id="svg2"
   version="1.1"
   inkscape:version="0.91 r13725"
   sodipodi:docname="archibold.svg"
   inkscape:export-filename="/home/webreflection/Documents/archibold.png"
   inkscape:export-xdpi="90.017982"
   inkscape:export-ydpi="90.017982">
  <defs
     id="defs4">
    <linearGradient
       gradientTransform="translate(287,-83)"
       gradientUnits="userSpaceOnUse"
       id="path1082_2_"
       y2="129.3468"
       x2="112.49853"
       y1="6.1372099"
       x1="112.49854">
      <stop
         offset="0"
         style="stop-color:#ffffff;stop-opacity:0"
         id="stop193" />
      <stop
         offset="1"
         style="stop-color:#ffffff;stop-opacity:0.27450982"
         id="stop195" />
      <midPointStop
         id="midPointStop197"
         style="stop-color:#FFFFFF"
         offset="0" />
      <midPointStop
         id="midPointStop199"
         style="stop-color:#FFFFFF"
         offset="0.5" />
      <midPointStop
         id="midPointStop201"
         style="stop-color:#000000"
         offset="1" />
    </linearGradient>
    <linearGradient
       gradientTransform="matrix(-0.3937741,0,0,0.393752,357.51969,122.00151)"
       gradientUnits="userSpaceOnUse"
       xlink:href="#path1082_2_"
       id="linearGradient2544"
       y2="303.14029"
       x2="606.91248"
       y1="104.50665"
       x1="541.33502" />
    <linearGradient
       id="linearGradient3388">
      <stop
         offset="0"
         style="stop-color:#000000;stop-opacity:0"
         id="stop3390" />
      <stop
         offset="1"
         style="stop-color:#000000;stop-opacity:0.37113401"
         id="stop3392" />
    </linearGradient>
    <linearGradient
       gradientTransform="matrix(0.749107,0,0,0.749107,-35.459862,91.44108)"
       gradientUnits="userSpaceOnUse"
       xlink:href="#linearGradient3388"
       id="linearGradient4416"
       y2="183.9644"
       x2="490.72305"
       y1="237.72447"
       x1="490.72305" />
  </defs>
  <sodipodi:namedview
     id="base"
     pagecolor="#000000"
     bordercolor="#000000"
     borderopacity="0"
     inkscape:pageopacity="1"
     inkscape:pageshadow="2"
     inkscape:zoom="0.91432927"
     inkscape:cx="706.07224"
     inkscape:cy="485.8804"
     inkscape:document-units="px"
     inkscape:current-layer="layer1"
     showgrid="false"
     units="px"
     inkscape:window-width="3200"
     inkscape:window-height="1687"
     inkscape:window-x="0"
     inkscape:window-y="55"
     inkscape:window-maximized="1"
     showguides="false"
     inkscape:showpageshadow="true"
     borderlayer="false" />
  <metadata
     id="metadata7">
    <rdf:RDF>
      <cc:Work
         rdf:about="">
        <dc:format>image/svg+xml</dc:format>
        <dc:type
           rdf:resource="http://purl.org/dc/dcmitype/StillImage" />
        <dc:title></dc:title>
      </cc:Work>
    </rdf:RDF>
  </metadata>
  <g
     inkscape:label="Layer 1"
     inkscape:groupmode="layer"
     id="layer1"
     transform="translate(0,27.637839)">
    <g
       id="g4433"
       transform="translate(-182.36779,0)"
       style="fill:#b4b4c8;fill-opacity:1"
       inkscape:export-xdpi="90.017982"
       inkscape:export-ydpi="90.017982">
      <g
         transform="matrix(0.58539019,0,0,0.58539019,760.96409,669.19864)"
         id="layer1-7"
         style="fill:#b4b4c8;fill-opacity:1">
        <g
           transform="matrix(0.8746356,0,0,0.8746356,14.730518,23.408954)"
           id="g2424"
           style="fill:#b4b4c8;fill-opacity:1">
          <g
             transform="matrix(0.6378586,0,0,0.6378586,36.486487,2.17139)"
             id="g2809"
             style="fill:#b4b4c8;fill-opacity:1">
            <path
               inkscape:connector-curvature="0"
               d="m 339.96875,309.09375 c -14.47141,-0.0239 -26.4812,2.94367 -31.125,4.5625 l -4.78125,25.8125 c -0.0116,0.0951 23.79543,-6.34855 34.28125,-5.96875 17.36158,0.62381 18.95948,6.63541 18.65625,14.75 0.29595,0.47462 -4.47933,-7.33192 -19.5,-7.59375 -18.94961,-0.32687 -45.69284,6.70947 -45.65625,35.3125 -0.51086,32.17412 24.03361,41.63882 40.75,41.8125 15.02821,-0.27364 22.0777,-5.69136 25.9375,-8.59375 5.07124,-5.30236 10.87308,-10.63447 16.40625,-17.03125 -5.23567,9.51278 -9.77472,16.0898 -14.5,21.125 l 0,4.25 22.84375,-3.84375 0.15625,-62.09375 c -0.23141,-8.78839 5.04123,-42.41827 -43.46875,-42.5 z m -3.28125,54.0625 c 9.46889,0.12995 20.32788,4.79708 20.34375,16.03125 0.049,10.21821 -12.80005,15.71183 -21.15625,15.625 -8.35976,-0.0868 -19.45093,-6.56982 -19.5,-16.53125 0.16016,-8.90444 10.45953,-15.35418 20.3125,-15.125 z"
               id="path2284"
               style="fill:#b4b4c8;fill-opacity:1;fill-rule:evenodd;stroke:none" />
            <path
               inkscape:connector-curvature="0"
               d="m 398.50106,314.83145 -0.15505,102.82693 26.61213,-5.12724 0.0449,-58.30157 c 0.006,-8.68089 12.40554,-18.82451 27.9627,-18.66287 3.30202,-5.97408 9.5087,-21.24219 11.02088,-24.71514 -34.75649,-0.0833 -35.19897,9.98993 -41.24398,14.94517 -0.0631,-9.45285 -0.0213,-15.12741 -0.0213,-15.12741 l -24.2202,4.16213 z"
               id="path2286"
               style="fill:#b4b4c8;fill-opacity:1;fill-rule:evenodd;stroke:none" />
            <path
               inkscape:connector-curvature="0"
               d="m 548.2688,328.33058 c -0.25696,-0.12068 -13.87938,-15.93419 -41.26638,-16.0589 -25.65249,-0.42638 -54.42578,9.51895 -54.88631,52.5328 0.22457,37.81852 27.6402,52.59809 55.0314,52.88627 29.31292,0.30451 40.97654,-18.32947 41.67615,-18.79124 -3.49762,-3.0321 -16.59792,-16.0131 -16.59792,-16.0131 0,0 -8.18236,11.65102 -24.05802,11.79913 -15.87942,0.1512 -29.68245,-12.27325 -29.87805,-29.60905 -0.20349,-17.33595 12.68881,-26.72821 29.99725,-27.48687 14.98466,-0.003 23.6297,9.67334 23.6297,9.67334 l 16.35218,-18.93238 z"
               id="path2288"
               style="fill:#b4b4c8;fill-opacity:1;fill-rule:evenodd;stroke:none" />
            <path
               inkscape:connector-curvature="0"
               d="m 581.8125,278.84375 -25.125,5.90625 0.1875,133.9375 24.75,-4.46875 0.28125,-63.03125 c 0.0529,-6.60927 9.56127,-16.75916 25.4375,-16.4375 15.17973,0.15775 18.57236,10.11767 18.53125,11.375 l 0.4375,72.96875 24.40625,-4.3125 0.0937,-77.375 c 0.1607,-7.44539 -16.30833,-23.16954 -42.78125,-23.28125 -12.58087,0.0202 -19.54815,2.86825 -23.09375,4.96875 -6.06656,4.68565 -12.9998,9.17543 -19.8125,14.90625 6.29809,-8.09099 11.58551,-13.68516 16.75,-17.84375 l -0.0625,-37.3125 z"
               id="path2290"
               style="fill:#b4b4c8;fill-opacity:1;fill-rule:evenodd;stroke:none" />
          </g>
          <g
             transform="matrix(0.9443373,0,0.01336345,0.9443373,78.345657,-412.48879)"
             id="g5326"
             style="fill:#b4b4c8;fill-opacity:1;stroke:none">
            <path
               inkscape:connector-curvature="0"
               d="m 400.67581,629.79609 7.68167,-1.91575 -0.92851,91.20792 -7.79574,1.32426 1.04258,-90.61643 z"
               id="path2292"
               style="fill:#b4b4c8;fill-opacity:1;fill-rule:evenodd;stroke:none" />
            <path
               inkscape:connector-curvature="0"
               d="m 421.10266,657.01757 6.75064,-2.9867 -0.86808,65.39931 -6.49779,1.33915 0.61523,-63.75176 z m -1.26059,-23.58316 5.47167,-4.41533 4.42261,4.99952 -5.47558,4.53221 -4.4187,-5.1164 z"
               id="path2294"
               style="fill:#b4b4c8;fill-opacity:1;fill-rule:evenodd;stroke:none" />
            <path
               inkscape:connector-curvature="0"
               d="m 440.44273,655.82614 7.67755,-1.56201 -0.1573,13.6722 c -0.007,0.58717 4.4194,-15.27364 24.68502,-14.92094 19.67986,0.10952 22.68401,15.34634 22.5291,18.76237 l -0.43759,48.0783 -6.73044,1.45631 0.63316,-47.489 c 0.0974,-1.38684 -2.88144,-13.11441 -16.78906,-13.15754 -13.90509,-0.0404 -23.68364,10.10048 -23.75821,16.57937 l -0.48127,41.83477 -7.80388,2.0313 0.63292,-65.28513 z"
               id="path2296"
               style="fill:#b4b4c8;fill-opacity:1;fill-rule:evenodd;stroke:none" />
            <path
               inkscape:connector-curvature="0"
               d="m 561.53301,720.20203 -7.6776,1.56186 0.15737,-13.67198 c 0.007,-0.58742 -4.42201,15.27361 -24.68504,14.92086 -19.67983,-0.10944 -22.68399,-15.34626 -22.52908,-18.76229 l 0.43757,-48.07861 8.15674,-1.64226 -0.54644,47.48988 c -0.0149,1.29682 1.36845,13.29979 15.27604,13.3426 13.90511,0.0405 23.76622,-8.37359 24.01453,-21.04416 l 0.43105,-37.46902 7.5978,-1.93195 -0.63294,65.28507 z"
               id="path2298"
               style="fill:#b4b4c8;fill-opacity:1;fill-rule:evenodd;stroke:none" />
            <path
               inkscape:connector-curvature="0"
               d="m 577.45461,655.28678 -5.42715,4.20017 20.19894,26.93328 -22.39092,31.11622 5.63499,4.226 21.04365,-28.8967 20.8779,29.58159 5.32727,-4.20103 -22.37578,-31.62866 18.56963,-25.5775 -5.53193,-4.73429 -16.92109,23.66778 -19.00551,-24.68686 z"
               id="path2300"
               style="fill:#b4b4c8;fill-opacity:1;fill-rule:evenodd;stroke:none" />
          </g>
          <path
             inkscape:connector-curvature="0"
             d="m 105.8125,16.625 c -7.39687,18.135158 -11.858304,29.997682 -20.09375,47.59375 5.04936,5.35232 11.247211,11.585364 21.3125,18.625 C 96.210077,78.390904 88.828713,73.920352 83.3125,69.28125 72.7727,91.274163 56.259864,122.60209 22.75,182.8125 49.087628,167.60733 69.504089,158.23318 88.53125,154.65625 87.714216,151.1422 87.2497,147.34107 87.28125,143.375 l 0.03125,-0.84375 c 0.417917,-16.87382 9.195665,-29.84979 19.59375,-28.96875 10.39809,0.88104 18.48041,15.28242 18.0625,32.15625 -0.0786,3.17512 -0.43674,6.22955 -1.0625,9.0625 18.82058,3.68164 39.01873,13.03179 65,28.03125 -5.123,-9.4318 -9.69572,-17.93388 -14.0625,-26.03125 -6.87839,-5.33121 -14.05289,-12.2698 -28.6875,-19.78125 10.05899,2.61375 17.2611,5.62932 22.875,9 C 124.63297,63.338161 121.03766,52.354109 105.8125,16.625 Z"
             transform="matrix(1.1433333,0,0,1.1433333,22.920168,121.64318)"
             id="path2518"
             style="fill:#b4b4c8;fill-opacity:1;fill-rule:evenodd;stroke:none" />
          <g
             id="text2634"
             style="font-style:normal;font-weight:normal;font-size:8.44138241px;font-family:'DejaVu Sans Mono';fill:#b4b4c8;fill-opacity:1;stroke:none">
            <path
               style="fill:#b4b4c8;fill-opacity:1"
               inkscape:connector-curvature="0"
               d="m 685.46692,263.83624 0,-5.32944 -1.99082,0 0,-0.71307 4.7895,0 0,0.71307 -1.99906,0 0,5.32944 -0.79962,0"
               id="path4714" />
            <path
               style="fill:#b4b4c8;fill-opacity:1"
               inkscape:connector-curvature="0"
               d="m 689.0982,263.83624 0,-6.04251 1.20355,0 1.43026,4.2784 c 0.13189,0.39843 0.22806,0.69658 0.28852,0.89442 0.0687,-0.21983 0.17586,-0.5427 0.3215,-0.96862 l 1.44674,-4.2042 1.07578,0 0,6.04251 -0.77077,0 0,-5.05741 -1.75587,5.05741 -0.72131,0 -1.74763,-5.14396 0,5.14396 -0.77077,0"
               id="path4716" />
          </g>
          <g
             id="text2638"
             style="font-style:normal;font-weight:normal;font-size:8.25130367px;font-family:'DejaVu Sans Mono';fill:#b4b4c8;fill-opacity:1;stroke:none">
            <path
               style="fill:#b4b4c8;fill-opacity:1"
               inkscape:connector-curvature="0"
               d="m 239.84053,313.69965 0,-5.20945 -1.94598,0 0,-0.697 4.68164,0 0,0.697 -1.95404,0 0,5.20945 -0.78162,0"
               id="path4719" />
            <path
               style="fill:#b4b4c8;fill-opacity:1"
               inkscape:connector-curvature="0"
               d="m 243.39004,313.69965 0,-5.90645 1.17646,0 1.39805,4.18205 c 0.12892,0.38947 0.22293,0.6809 0.28202,0.87429 0.0671,-0.21488 0.1719,-0.53048 0.31426,-0.94681 l 1.41417,-4.10953 1.05155,0 0,5.90645 -0.75341,0 0,-4.94353 -1.71634,4.94353 -0.70506,0 -1.70828,-5.02814 0,5.02814 -0.75342,0"
               id="path4721" />
          </g>
        </g>
      </g>
      <g
         style="fill:#b4b4c8;fill-opacity:1"
         transform="matrix(0.27080354,0,0,0.27080354,1243.8325,723.46054)"
         id="layer1-3">
        <g
           style="fill:#b4b4c8;fill-opacity:1"
           transform="matrix(1.293235,0,0,1.293235,-4932.3105,-1358.0891)"
           id="g15041">
          <g
             transform="matrix(2.438586,0,0,2.438586,3659.952,1113.451)"
             style="fill:#b4b4c8;fill-opacity:1;fill-rule:nonzero;stroke:none;stroke-miterlimit:4"
             id="g15043">
            <g
               style="fill:#b4b4c8;fill-opacity:1"
               id="g15045">
              <path
                 inkscape:connector-curvature="0"
                 d="M 86.068,0 C 61.466,0 56.851,35.041 70.691,35.041 84.529,35.041 110.671,0 86.068,0 Z"
                 style="fill:#b4b4c8;fill-opacity:1"
                 id="path15047" />
              <path
                 inkscape:connector-curvature="0"
                 d="M 45.217,30.699 C 52.586,31.149 60.671,2.577 46.821,4.374 32.976,6.171 37.845,30.249 45.217,30.699 Z"
                 style="fill:#b4b4c8;fill-opacity:1"
                 id="path15049" />
              <path
                 inkscape:connector-curvature="0"
                 d="M 11.445,48.453 C 16.686,46.146 12.12,23.581 3.208,29.735 -5.7,35.89 6.204,50.759 11.445,48.453 Z"
                 style="fill:#b4b4c8;fill-opacity:1"
                 id="path15051" />
              <path
                 inkscape:connector-curvature="0"
                 d="M 26.212,36.642 C 32.451,35.37 32.793,9.778 21.667,14.369 10.539,18.961 19.978,37.916 26.212,36.642 l 0,0 z"
                 style="fill:#b4b4c8;fill-opacity:1"
                 id="path15053" />
              <path
                 inkscape:connector-curvature="0"
                 d="m 58.791,93.913 c 1.107,8.454 -6.202,12.629 -13.36,7.179 C 22.644,83.743 83.16,75.088 79.171,51.386 75.86,31.712 15.495,37.769 8.621,68.553 3.968,89.374 27.774,118.26 52.614,118.26 c 12.22,0 26.315,-11.034 28.952,-25.012 C 83.58,82.589 57.867,86.86 58.791,93.913 l 0,0 z"
                 style="fill:#b4b4c8;fill-opacity:1"
                 id="path15055" />
            </g>
          </g>
          <g
             style="fill:#b4b4c8;fill-opacity:1"
             id="g15057">
            <path
               inkscape:connector-curvature="0"
               d="m 4176.2963,1214.4401 c -15.1078,0.4069 -27.0386,5.8367 -35.8126,16.25 -9.0861,10.8369 -13.6562,25.8104 -13.6562,44.9063 0,19.0432 4.5703,33.9757 13.6562,44.8124 9.1305,10.8369 21.6664,16.25 37.6563,16.25 16.034,0 28.6014,-5.4131 37.6875,-16.25 9.0859,-10.8367 13.6251,-25.7692 13.625,-44.8124 -1e-4,-19.0959 -4.5391,-34.0694 -13.625,-44.9063 -9.0861,-10.8366 -21.6536,-16.2499 -37.6875,-16.25 -0.6246,0 -1.2296,-0.016 -1.8437,0 z m 1.125,22 c 0.2415,-0.01 0.4737,0 0.7187,0 7.8833,10e-5 13.9919,3.4114 18.3125,10.25 4.3203,6.8388 6.4999,16.4913 6.5,28.9063 0,12.3623 -2.1799,21.9427 -6.5,28.7812 -4.3204,6.8389 -10.4293,10.2812 -18.3125,10.2812 -7.8391,0 -13.8983,-3.4423 -18.2187,-10.2812 -4.3204,-6.8385 -6.4999,-16.4189 -6.5,-28.7812 0,-12.4149 2.1798,-22.0675 6.5,-28.9063 4.1852,-6.6249 10.0123,-10.0428 17.5,-10.25 z"
               style="font-style:normal;font-variant:normal;font-weight:bold;font-stretch:normal;font-size:148.699646px;line-height:125%;font-family:'Bitstream Vera Sans';text-align:start;writing-mode:lr-tb;text-anchor:start;fill:#b4b4c8;fill-opacity:1;stroke:none;stroke-width:1pt;stroke-linecap:butt;stroke-linejoin:miter;stroke-opacity:1"
               id="path15059" />
            <path
               inkscape:connector-curvature="0"
               d="m 4005.6293,1325.612 c -13.3076,11.1757 -33.1067,11.0472 -41.3549,11.0472 -16.6133,0 -29.7747,-5.471 -39.4842,-16.413 -9.7097,-10.9946 -14.5644,-25.8819 -14.5644,-44.6622 0,-18.9906 4.9438,-33.9305 14.8316,-44.82 9.8878,-10.8892 23.4277,-16.3339 40.62,-16.334 6.6363,10e-5 12.9831,0.7366 19.0406,2.2094 6.1019,1.473 11.8475,3.6562 17.2368,6.5494 l -6.921,20.4608 c -3.0298,-1.6586 -6.4987,-3.2932 -9.7145,-4.4424 -5.4784,-1.8411 -10.979,-2.7617 -16.5018,-2.7618 -10.2442,10e-5 -18.15,3.3932 -23.7173,10.1792 -5.523,6.7336 -8.2844,16.3867 -8.2844,28.9594 0,12.4676 2.6723,22.0945 8.0172,28.8806 5.3446,6.7861 13.3768,10.1791 22.7818,10.1791 9.5548,0 15.4728,-2.4084 18.6291,-4.9461 l 0,-20.3835 -20.7001,0 0,-20.3584 40.0855,0"
               style="font-style:normal;font-variant:normal;font-weight:bold;font-stretch:normal;font-size:148.699646px;line-height:125%;font-family:'Bitstream Vera Sans';text-align:start;writing-mode:lr-tb;text-anchor:start;fill:#b4b4c8;fill-opacity:1;stroke:none;stroke-width:1pt;stroke-linecap:butt;stroke-linejoin:miter;stroke-opacity:1"
               id="path15061" />
            <path
               inkscape:connector-curvature="0"
               d="m 4023.2108,1216.5605 16.2279,0 51.2775,70.8022 0,-70.8022 21.8853,0 0,117.8103 -16.2279,0 -51.2774,-70.8022 0,70.8022 -21.8854,0 0,-117.8103"
               style="font-style:normal;font-variant:normal;font-weight:bold;font-stretch:normal;font-size:148.699646px;line-height:125%;font-family:'Bitstream Vera Sans';text-align:start;writing-mode:lr-tb;text-anchor:start;fill:#b4b4c8;fill-opacity:1;stroke:none;stroke-width:1pt;stroke-linecap:butt;stroke-linejoin:miter;stroke-opacity:1"
               id="path15063" />
            <path
               inkscape:connector-curvature="0"
               d="m 4246.3361,1216.5605 32.7366,0 22.7151,73.5479 22.8487,-73.5479 27.6698,0 12.5,117.8103 -24.3186,0 -7.5,-73.668 -22.9823,74.0213 -16.3015,0 -22.9824,-76.5213 -7.5,76.168 -24.3854,0 12.5,-117.8103"
               style="font-style:normal;font-variant:normal;font-weight:bold;font-stretch:normal;font-size:148.699646px;line-height:125%;font-family:'Bitstream Vera Sans';text-align:start;writing-mode:lr-tb;text-anchor:start;fill:#b4b4c8;fill-opacity:1;stroke:none;stroke-width:1pt;stroke-linecap:butt;stroke-linejoin:miter;stroke-opacity:1"
               id="path15065" />
            <path
               inkscape:connector-curvature="0"
               d="m 4382.3597,1216.5605 69.4147,0 0,22.9624 -43.6933,0 0,24.4365 33.5877,0 0,20.4623 -33.5877,0 0,26.9868 45.1631,0 0,22.9623 -70.8845,0 0,-117.8103"
               style="font-style:normal;font-variant:normal;font-weight:bold;font-stretch:normal;font-size:148.699646px;line-height:125%;font-family:'Bitstream Vera Sans';text-align:start;writing-mode:lr-tb;text-anchor:start;fill:#b4b4c8;fill-opacity:1;stroke:none;stroke-width:1pt;stroke-linecap:butt;stroke-linejoin:miter;stroke-opacity:1"
               id="path15067" />
            <text
               x="4474.6182"
               y="1215.743"
               style="font-style:normal;font-weight:normal;font-size:30.68958855px;font-family:'Bitstream Vera Sans';fill:#b4b4c8;fill-opacity:1;stroke:none;stroke-width:1pt;stroke-linecap:butt;stroke-linejoin:miter;stroke-opacity:1"
               id="text15069"
               xml:space="preserve"><tspan
                 x="4474.6182"
                 y="1215.743"
                 style="letter-spacing:11.06259632;fill:#b4b4c8;fill-opacity:1"
                 id="tspan15072"><tspan
                   style="letter-spacing:0.2523815;fill:#b4b4c8;fill-opacity:1"
                   id="tspan15074">TM</tspan></tspan></text>
          </g>
        </g>
      </g>
    </g>
    <text
       xml:space="preserve"
       style="font-style:normal;font-weight:normal;font-size:234.39814758px;line-height:125%;font-family:sans-serif;letter-spacing:0px;word-spacing:0px;fill:#ffffff;fill-opacity:1;stroke:none;stroke-width:1px;stroke-linecap:butt;stroke-linejoin:miter;stroke-opacity:1"
       x="321.04529"
       y="464.5715"
       id="text3621"
       sodipodi:linespacing="125%"
       inkscape:export-xdpi="90.017982"
       inkscape:export-ydpi="90.017982"><tspan
         sodipodi:role="line"
         id="tspan3623"
         x="321.04529"
         y="464.5715"
         style="font-style:normal;font-variant:normal;font-weight:normal;font-stretch:normal;font-family:'Nimbus Mono';-inkscape-font-specification:'Nimbus Mono';fill:#ffffff">archibold</tspan></text>
    <text
       xml:space="preserve"
       style="font-style:normal;font-weight:normal;font-size:40px;line-height:125%;font-family:sans-serif;letter-spacing:0px;word-spacing:0px;fill:#646480;fill-opacity:1;stroke:none;stroke-width:1px;stroke-linecap:butt;stroke-linejoin:miter;stroke-opacity:1;"
       x="841.47461"
       y="648.56958"
       id="text3391"
       sodipodi:linespacing="125%"
       inkscape:export-xdpi="90.017982"
       inkscape:export-ydpi="90.017982"><tspan
         sodipodi:role="line"
         id="tspan3393"
         x="841.47461"
         y="648.56958"
         style="font-style:normal;font-variant:normal;font-weight:normal;font-stretch:normal;font-family:'DejaVu Sans';-inkscape-font-specification:'DejaVu Sans';fill:#646480;fill-opacity:1;">powered by</tspan></text>
  </g>
  <g
     inkscape:groupmode="layer"
     id="layer2"
     inkscape:label="Layer 2" />
</svg>
